<svg width="1033" height="478" viewBox="0 0 1033 478" fill="none" xmlns="http://www.w3.org/2000/svg">
<path fill-rule="evenodd" clip-rule="evenodd" d="M0 166.28C284.038 291.979 468.18 230.983 599.214 70.738C489.847 222.833 443.224 249.173 422.413 328.629C399.311 314.421 368.291 297.828 349.73 275.13C368.188 310.888 397.909 355.996 412.29 374.586C407.322 401.128 405.638 438.361 405.421 475.253C348.644 479.411 291.683 474.989 234.641 474.989C235.157 320.355 184.764 287.726 0 166.28Z" fill="white" fill-opacity="0.2"/>
<path fill-rule="evenodd" clip-rule="evenodd" d="M1032.69 136.558C748.648 262.257 564.506 201.261 433.472 41.0152C560.76 218.033 605.044 229.07 619.129 342.366C635.067 337.274 665.677 332.374 686.709 326.571C669.937 343.595 637.296 363.167 623.56 372.755C626.304 401.032 627.08 431.898 626.886 472.623C626.885 473.588 625.894 475.542 626.874 475.54L798.68 475.14C799.033 475.14 798.652 474.43 798.641 474.082C792.003 294.142 836.956 265.211 1032.69 136.558Z" fill="white" fill-opacity="0.2"/>
<path fill-rule="evenodd" clip-rule="evenodd" d="M743.109 0.879089C583.591 -1.23277 710.41 295.051 807.401 118.669C819.237 95.1628 819.125 64.0161 811.308 40.7196C800.057 7.18187 776.04 1.3159 743.109 0.879089Z" fill="white" fill-opacity="0.2"/>
<path fill-rule="evenodd" clip-rule="evenodd" d="M671.384 334.296C522.314 400.267 425.671 368.255 356.903 284.154C432.61 389.438 453.998 390.246 457.712 474.704C457.72 474.916 457.529 475.34 457.74 475.338L548.902 474.878C549.308 474.875 548.971 474.063 549.001 473.653C553.983 411.23 584.159 391.631 671.384 334.296Z" fill="white" fill-opacity="0.2"/>
<path fill-rule="evenodd" clip-rule="evenodd" d="M522.386 256.261C429.99 251.322 503.94 422.203 558.652 322.706C565.329 309.446 565.265 291.878 560.856 278.735C554.51 259.816 540.935 257.254 522.386 256.261Z" fill="white" fill-opacity="0.2"/>
<path fill-rule="evenodd" clip-rule="evenodd" d="M200.905 174.706C227.405 163.585 221.881 72.3774 231.94 47.7162C252.114 -14.7909 331.962 -17.0103 360.511 47.7162C371.468 69.1825 351.895 171.334 385.634 175.443C354.661 186.827 327.383 196.363 295.486 197.963C258.53 198.075 227.811 187.647 200.905 174.706Z" fill="white" fill-opacity="0.2"/>
</svg>
