<svg width="197" height="51" viewBox="0 0 197 51" fill="none" xmlns="http://www.w3.org/2000/svg">
<path d="M0 12.1288V8.2617H3.87022V12.1288H0ZM0 34.6363V14.7199H3.87022V34.6363H0ZM22.5653 24.6973C22.5653 22.9443 21.9268 21.4296 20.6558 20.1534C19.3786 18.8773 17.8562 18.2391 16.0953 18.2391C14.3278 18.2391 12.8053 18.8773 11.5281 20.1534C10.2702 21.4165 9.63818 22.9315 9.63818 24.6973C9.63818 26.4762 10.2702 27.9974 11.5281 29.2606C12.7925 30.524 14.315 31.1555 16.0953 31.1555C17.8692 31.1555 19.3916 30.524 20.6558 29.2606C21.9268 27.9844 22.5653 26.4633 22.5653 24.6973ZM26.4359 32.4381C26.4359 35.2355 25.4166 37.6397 23.3716 39.6572C21.3398 41.7002 18.9143 42.7185 16.0953 42.7185C14.3408 42.7185 12.6765 42.2738 11.1024 41.3779C10.3218 40.9398 9.61227 40.4178 8.98025 39.8247C8.35442 39.2253 7.78678 38.5484 7.27701 37.7943L10.554 35.6608C11.9669 37.788 13.8118 38.8515 16.0953 38.8515C18.0111 38.8515 19.5398 38.2196 20.6882 36.9628C21.7591 35.7834 22.3718 34.2364 22.5202 32.3222C20.6044 34.0945 18.3529 34.9842 15.7727 34.9842C12.9989 34.9842 10.6316 33.9724 8.67681 31.9419C6.7352 29.9244 5.76764 27.5075 5.76764 24.6973C5.76764 21.8742 6.7804 19.4444 8.81256 17.4139C10.8703 15.3838 13.2957 14.3719 16.0953 14.3719C18.9143 14.3719 21.3398 15.3838 23.3716 17.4139C25.4166 19.4444 26.4359 21.8677 26.4359 24.6908V32.4381ZM37.3511 18.2454C35.9127 18.2454 34.7 18.7032 33.7001 19.6248C32.6936 20.5272 32.1907 21.6808 32.1907 23.0794V34.6363H28.3202V23.0794C28.3202 20.6882 29.2233 18.645 31.023 16.9565C32.8486 15.2485 34.958 14.3846 37.3511 14.3719V18.2454ZM51.2469 19.7087C50.0083 18.7289 48.6343 18.2391 47.1249 18.2391C45.338 18.2391 43.8158 18.8772 42.5708 20.1469C41.3259 21.4165 40.7 22.9376 40.7 24.7166C40.7 25.2194 40.7903 25.7738 40.9645 26.3796L51.2469 19.7087ZM57.4847 24.4523C57.4719 27.3594 56.4785 29.8473 54.498 31.9098C52.5371 33.9594 50.0988 34.9842 47.1832 34.9842C44.3125 34.9842 41.8677 33.9917 39.8551 32.0127C37.8361 30.0341 36.8296 27.6106 36.8296 24.736C36.8296 21.8873 37.8296 19.4444 39.8355 17.4139C41.8354 15.3838 44.2673 14.3719 47.1314 14.3719C49.2215 14.3719 51.1308 14.9518 52.853 16.112C54.582 17.2721 55.872 18.8322 56.73 20.785L43.0675 29.6797C44.2866 30.6658 45.6606 31.1555 47.1832 31.1555C49.028 31.1555 50.5438 30.4981 51.7435 29.1897C52.9498 27.8684 53.5628 26.2894 53.5756 24.4523H57.4847ZM61.3303 12.1288V8.2617H65.2138V12.1288H61.3303ZM65.2073 32.432C65.2073 34.7842 64.3041 36.8147 62.4914 38.5098C60.6851 40.2178 58.5953 41.0816 56.215 41.0943V37.2271C57.6276 37.2271 58.8276 36.7696 59.8274 35.8477C60.8336 34.9456 61.3368 33.8048 61.3368 32.432V14.7199H65.2073V32.432ZM83.8958 24.6973C83.8958 22.9443 83.2573 21.4296 81.9863 20.1534C80.7091 18.8773 79.1867 18.2391 77.4259 18.2391C75.6583 18.2391 74.1358 18.8773 72.8586 20.1534C71.6007 21.4165 70.9687 22.9315 70.9687 24.6973C70.9687 26.4762 71.6007 27.9974 72.8586 29.2606C74.123 30.524 75.6455 31.1555 77.4259 31.1555C79.1997 31.1555 80.7221 30.524 81.9863 29.2606C83.2573 27.9844 83.8958 26.4633 83.8958 24.6973ZM83.8958 34.6363V32.2577C81.9801 34.0752 79.7157 34.9842 77.1032 34.9842C74.3294 34.9842 71.9686 33.9724 70.014 31.9419C68.0723 29.9244 67.0981 27.5075 67.0981 24.6973C67.0981 21.8615 68.1046 19.4314 70.1238 17.4139C72.1556 15.3838 74.5874 14.3719 77.4259 14.3719C80.2576 14.3719 82.6897 15.3838 84.7215 17.4139C86.7534 19.4379 87.7664 21.8615 87.7664 24.6845V34.6363H83.8958Z" fill="#B5DA35"/>
<path d="M108.75 25.9731C108.75 24.2201 108.112 22.7054 106.841 21.4292C105.57 20.1531 104.061 19.5151 102.306 19.5151C100.545 19.5151 99.0224 20.1531 97.7518 21.4292C96.4939 22.6923 95.8617 24.2073 95.8617 25.9731C95.8617 27.7521 96.4939 29.2732 97.7518 30.5364C99.0097 31.7998 100.532 32.4313 102.306 32.4313C104.067 32.4313 105.583 31.7998 106.841 30.5364C108.112 29.2602 108.75 27.7391 108.75 25.9731ZM112.621 25.9731C112.621 28.7963 111.608 31.226 109.582 33.25C107.55 35.2545 105.125 36.26 102.306 36.26C99.4612 36.26 97.0291 35.261 95.0166 33.2565C92.9975 31.2392 91.9913 28.8156 91.9913 25.9796V9.53753H95.8617V18.3869C97.7646 16.5629 100.016 15.6477 102.628 15.6477C105.383 15.6477 107.737 16.6661 109.692 18.7094C111.647 20.7654 112.621 23.1888 112.621 25.9731ZM129.716 25.9731C129.716 24.2201 129.077 22.7054 127.806 21.4292C126.529 20.1531 125.007 19.5151 123.246 19.5151C121.478 19.5151 119.956 20.1531 118.679 21.4292C117.421 22.6923 116.789 24.2073 116.789 25.9731C116.789 27.7521 117.421 29.2732 118.679 30.5364C119.943 31.7998 121.465 32.4313 123.246 32.4313C125.02 32.4313 126.542 31.7998 127.806 30.5364C129.077 29.2602 129.716 27.7391 129.716 25.9731ZM129.716 35.9121V33.5336C127.8 35.3511 125.536 36.26 122.923 36.26C120.149 36.26 117.789 35.2482 115.834 33.2177C113.892 31.2002 112.918 28.7833 112.918 25.9731C112.918 23.1373 113.925 20.7072 115.944 18.6898C117.976 16.6596 120.407 15.6477 123.246 15.6477C126.078 15.6477 128.51 16.6596 130.541 18.6898C132.573 20.7137 133.586 23.1373 133.586 25.9604V35.9121H129.716ZM140.967 19.863V35.9121H137.096V19.863H133.884V15.9957H137.096V9.53753H140.967V15.9957H144.198V19.863H140.967ZM145.283 13.4046V9.53753H149.153V13.4046H145.283ZM145.283 35.9121V15.9957H149.153V35.9121H145.283ZM164.61 30.3625C164.61 31.9996 164.017 33.3918 162.83 34.5392C161.649 35.6863 160.243 36.26 158.617 36.26C157.179 36.26 155.921 35.8153 154.837 34.9192C153.754 34.0106 153.057 32.8374 152.741 31.4002L156.482 30.3945C156.734 31.7481 157.444 32.4185 158.617 32.4185C159.172 32.4185 159.669 32.2187 160.114 31.8191C160.553 31.4002 160.772 30.9167 160.772 30.3625C160.772 29.4409 160.075 28.6738 158.676 28.0743C157.553 27.5652 156.669 27.1591 156.018 26.8433C155.373 26.5275 154.96 26.3019 154.779 26.1601C153.386 25.1289 152.683 23.6205 152.683 21.6419C152.683 20.0305 153.27 18.6254 154.444 17.4267C155.624 16.2407 157.037 15.6477 158.676 15.6477C160.114 15.6477 161.372 16.1052 162.456 17.027C163.488 17.923 164.172 19.0893 164.513 20.5269L160.733 21.5129C160.443 20.1851 159.759 19.5212 158.676 19.5212C158.108 19.5212 157.611 19.7405 157.179 20.1658C156.753 20.5977 156.54 21.0875 156.54 21.6419C156.54 22.5505 157.237 23.3112 158.637 23.9299C159.746 24.4069 160.617 24.813 161.256 25.1289C161.888 25.4511 162.307 25.6895 162.514 25.8378C163.907 26.9013 164.61 28.403 164.61 30.3625ZM172.823 19.863V35.9121H168.952V19.863H165.74V15.9957H168.952V9.53753H172.823V15.9957H176.055V19.863H172.823ZM192.311 25.9731C192.311 24.2201 191.673 22.7054 190.402 21.4292C189.125 20.1531 187.602 19.5151 185.841 19.5151C184.074 19.5151 182.551 20.1531 181.274 21.4292C180.016 22.6923 179.384 24.2073 179.384 25.9731C179.384 27.7521 180.016 29.2732 181.274 30.5364C182.538 31.7998 184.061 32.4313 185.841 32.4313C187.615 32.4313 189.137 31.7998 190.402 30.5364C191.673 29.2602 192.311 27.7391 192.311 25.9731ZM192.311 35.9121V33.5336C190.395 35.3511 188.131 36.26 185.519 36.26C182.745 36.26 180.384 35.2482 178.429 33.2177C176.488 31.2002 175.514 28.7833 175.514 25.9731C175.514 23.1373 176.52 20.7072 178.539 18.6898C180.571 16.6596 183.003 15.6477 185.841 15.6477C188.673 15.6477 191.105 16.6596 193.137 18.6898C195.169 20.7137 196.182 23.1373 196.182 25.9604V35.9121H192.311Z" fill="#5FD9DA"/>
<path d="M15.2028 6.50806C15.2028 5.81376 14.9499 5.2141 14.4468 4.70884C13.9435 4.20338 13.3457 3.95063 12.6511 3.95063C11.9538 3.95063 11.351 4.20338 10.8478 4.70884C10.3496 5.20905 10.0993 5.8087 10.0993 6.50806C10.0993 7.2124 10.3496 7.81483 10.8478 8.315C11.3459 8.81509 11.9486 9.06516 12.6511 9.06516C13.3483 9.06516 13.9486 8.81509 14.4468 8.315C14.9499 7.80954 15.2028 7.20735 15.2028 6.50806ZM16.7354 6.50806C16.7354 7.61564 16.3495 8.5728 15.5757 9.37675C14.8017 10.1804 13.8694 10.5813 12.7788 10.5813C11.7494 10.5813 10.8579 10.2238 10.0993 9.51204V13.0007H8.56677V6.50301C8.56677 5.38001 8.96529 4.42041 9.76488 3.62419C10.5668 2.82016 11.5299 2.41937 12.6511 2.41937C13.7673 2.41937 14.7276 2.82016 15.5296 3.62419C16.3343 4.42814 16.7354 5.39015 16.7354 6.50806ZM20.7509 3.95338C20.1813 3.95338 19.701 4.13443 19.3053 4.49954C18.9068 4.85691 18.7074 5.31371 18.7074 5.86752V10.4435H17.1749V5.86752C17.1749 4.92062 17.5326 4.1115 18.245 3.44288C18.9681 2.76661 19.8031 2.42477 20.7509 2.41937V3.95338ZM21.188 1.53128V-1.90735e-06H22.7206V1.53128H21.188ZM21.188 10.4435V2.55731H22.7206V10.4435H21.188ZM32.9888 10.4435V5.61217C32.9888 5.17843 32.8406 4.79037 32.547 4.45102C32.2583 4.11654 31.8955 3.95063 31.4562 3.95063C30.9838 3.95063 30.6058 4.10644 30.3273 4.41535C30.0591 4.72406 29.9237 5.12223 29.9237 5.61217V10.4435H28.3912V5.61217C28.3912 5.11717 28.2534 4.71897 27.98 4.41535C27.7092 4.10644 27.3363 3.95063 26.8637 3.95063C26.4168 3.95063 26.0516 4.11654 25.7603 4.45102C25.4716 4.78531 25.3261 5.17333 25.3261 5.61217V10.4435H23.7935V5.61217C23.7935 4.74961 24.0873 4.00178 24.6774 3.36885C25.2648 2.73599 25.9927 2.41937 26.8613 2.41937C27.7937 2.41937 28.5599 2.75892 29.1575 3.43539C29.7449 2.75892 30.5112 2.41937 31.4536 2.41937C32.3172 2.41937 33.0424 2.73599 33.6299 3.36885C34.2251 4.00684 34.5213 4.75471 34.5213 5.61217V10.4435H32.9888ZM40.6622 4.53258C40.1717 4.14477 39.6277 3.95063 39.0302 3.95063C38.3225 3.95063 37.7197 4.20337 37.2268 4.70618C36.7338 5.20903 36.4862 5.81136 36.4862 6.51577C36.4862 6.71477 36.522 6.93419 36.5907 7.17404L40.6622 4.53258ZM43.1321 6.41113C43.127 7.56208 42.7336 8.54727 41.9495 9.36397C41.1731 10.1754 40.2075 10.5813 39.0532 10.5813C37.9164 10.5813 36.9483 10.1883 36.1515 9.40475C35.3521 8.62128 34.9537 7.6617 34.9537 6.52327C34.9537 5.39545 35.3494 4.42814 36.1438 3.62419C36.9355 2.82016 37.8986 2.41937 39.0326 2.41937C39.8601 2.41937 40.6163 2.64919 41.2983 3.10859C41.9828 3.56803 42.4938 4.18554 42.8333 4.95894L37.4235 8.48094C37.9063 8.87127 38.4502 9.06516 39.0532 9.06516C39.7836 9.06516 40.3839 8.80496 40.8589 8.28703C41.3365 7.76374 41.5792 7.13836 41.5843 6.41113H43.1321ZM43.8914 1.53128V-1.90735e-06H45.4239V1.53128H43.8914ZM43.8914 10.4435V2.55731H45.4239V10.4435H43.8914ZM50.0729 3.95338C49.5034 3.95338 49.0231 4.13443 48.6273 4.49954C48.2289 4.85691 48.0295 5.31371 48.0295 5.86752V10.4435H46.497V5.86752C46.497 4.92062 46.8547 4.1115 47.5671 3.44288C48.2902 2.76661 49.1252 2.42477 50.0729 2.41937V3.95338ZM56.5177 6.50806C56.5177 5.81376 56.2648 5.2141 55.7615 4.70884C55.2556 4.20338 54.653 3.95063 53.9555 3.95063C53.2559 3.95063 52.653 4.20338 52.1471 4.70884C51.6492 5.20905 51.3989 5.8087 51.3989 6.50806C51.3989 7.2124 51.6492 7.81483 52.1471 8.315C52.6479 8.81509 53.2505 9.06516 53.9555 9.06516C54.6581 9.06516 55.2609 8.81509 55.7615 8.315C56.2648 7.80954 56.5177 7.20735 56.5177 6.50806ZM56.5177 10.4435V9.50167C55.7588 10.2216 54.8625 10.5813 53.8278 10.5813C52.7295 10.5813 51.7948 10.1804 51.0208 9.37675C50.2521 8.5779 49.8664 7.62069 49.8664 6.50806C49.8664 5.3851 50.2649 4.42285 51.0642 3.62419C51.8688 2.82016 52.8318 2.41937 53.9555 2.41937C55.077 2.41937 56.0398 2.82016 56.8444 3.62419C57.6491 4.4255 58.0502 5.3851 58.0502 6.50301V10.4435H56.5177Z" fill="#B5DA35"/>
<path d="M105.879 44.5074C105.879 43.813 105.626 43.2134 105.123 42.7081C104.62 42.2026 104.022 41.9499 103.328 41.9499C102.63 41.9499 102.027 42.2026 101.524 42.7081C101.026 43.2083 100.776 43.808 100.776 44.5074C100.776 45.2117 101.026 45.8141 101.524 46.3143C102.022 46.8144 102.625 47.0645 103.328 47.0645C104.025 47.0645 104.625 46.8144 105.123 46.3143C105.626 45.8088 105.879 45.2066 105.879 44.5074ZM107.412 44.5074C107.412 45.6149 107.026 46.572 106.252 47.376C105.478 48.1797 104.546 48.5805 103.455 48.5805C102.426 48.5805 101.534 48.2231 100.776 47.5113V51H99.2433V44.5023C99.2433 43.3792 99.6417 42.4197 100.441 41.6235C101.243 40.8195 102.206 40.4187 103.328 40.4187C104.444 40.4187 105.404 40.8195 106.206 41.6235C107.011 42.4274 107.412 43.3893 107.412 44.5074ZM114.181 44.5074C114.181 43.813 113.928 43.2134 113.425 42.7081C112.919 42.2026 112.316 41.9499 111.619 41.9499C110.919 41.9499 110.316 42.2026 109.81 42.7081C109.312 43.2083 109.062 43.808 109.062 44.5074C109.062 45.2117 109.312 45.8141 109.81 46.3143C110.311 46.8144 110.914 47.0645 111.619 47.0645C112.321 47.0645 112.924 46.8144 113.425 46.3143C113.928 45.8088 114.181 45.2066 114.181 44.5074ZM114.181 48.4428V47.5009C113.422 48.2207 112.526 48.5805 111.491 48.5805C110.393 48.5805 109.458 48.1797 108.684 47.376C107.915 46.5771 107.53 45.62 107.53 44.5074C107.53 43.3843 107.928 42.4221 108.727 41.6235C109.532 40.8195 110.495 40.4187 111.619 40.4187C112.74 40.4187 113.703 40.8195 114.508 41.6235C115.312 42.4248 115.713 43.3843 115.713 44.5023V48.4428H114.181ZM120.035 41.9526C119.466 41.9526 118.986 42.1337 118.59 42.4988C118.191 42.8562 117.992 43.313 117.992 43.8668V48.4428H116.459V43.8668C116.459 42.9199 116.817 42.1108 117.53 41.4422C118.253 40.7659 119.088 40.4239 120.035 40.4187V41.9526ZM126.48 44.5074C126.48 43.813 126.227 43.2134 125.724 42.7081C125.218 42.2026 124.615 41.9499 123.918 41.9499C123.218 41.9499 122.615 42.2026 122.11 42.7081C121.612 43.2083 121.361 43.808 121.361 44.5074C121.361 45.2117 121.612 45.8141 122.11 46.3143C122.61 46.8144 123.213 47.0645 123.918 47.0645C124.621 47.0645 125.223 46.8144 125.724 46.3143C126.227 45.8088 126.48 45.2066 126.48 44.5074ZM126.48 48.4428V47.5009C125.721 48.2207 124.825 48.5805 123.79 48.5805C122.692 48.5805 121.757 48.1797 120.983 47.376C120.215 46.5771 119.829 45.62 119.829 44.5074C119.829 43.3843 120.227 42.4221 121.027 41.6235C121.831 40.8195 122.794 40.4187 123.918 40.4187C125.04 40.4187 126.002 40.8195 126.807 41.6235C127.612 42.4248 128.013 43.3843 128.013 44.5023V48.4428H126.48ZM124.281 39.5153H123.3L124.832 37.9841H126.577L124.281 39.5153ZM139.556 44.5074C139.556 43.813 139.303 43.2134 138.799 42.7081C138.293 42.2026 137.691 41.9499 136.993 41.9499C136.294 41.9499 135.691 42.2026 135.185 42.7081C134.687 43.2083 134.437 43.808 134.437 44.5074C134.437 45.2117 134.687 45.8141 135.185 46.3143C135.686 46.8144 136.288 47.0645 136.993 47.0645C137.696 47.0645 138.299 46.8144 138.799 46.3143C139.303 45.8088 139.556 45.2066 139.556 44.5074ZM141.088 44.51C141.088 45.6277 140.687 46.5872 139.882 47.3912C139.078 48.185 138.115 48.5805 136.993 48.5805C135.865 48.5805 134.902 48.1824 134.102 47.3888C133.303 46.5925 132.904 45.6304 132.904 44.5074C132.904 43.3947 133.29 42.4349 134.059 41.6312C134.828 40.8221 135.762 40.4187 136.866 40.4187C137.905 40.4187 138.802 40.7811 139.556 41.5034V37.9993H141.088V44.51ZM147.221 42.5318C146.73 42.144 146.186 41.9499 145.589 41.9499C144.881 41.9499 144.278 42.2027 143.786 42.7055C143.292 43.2083 143.045 43.8106 143.045 44.515C143.045 44.714 143.081 44.9334 143.149 45.1733L147.221 42.5318ZM149.691 44.4104C149.686 45.5614 149.292 46.5464 148.508 47.3633C147.732 48.1747 146.766 48.5805 145.612 48.5805C144.475 48.5805 143.507 48.1874 142.71 47.404C141.911 46.6205 141.512 45.661 141.512 44.5226C141.512 43.3947 141.908 42.4274 142.702 41.6235C143.494 40.8195 144.457 40.4187 145.591 40.4187C146.419 40.4187 147.175 40.6485 147.857 41.1079C148.542 41.5673 149.052 42.1848 149.392 42.9582L143.982 46.4802C144.465 46.8705 145.009 47.0645 145.612 47.0645C146.342 47.0645 146.943 46.8042 147.418 46.2863C147.895 45.763 148.138 45.1377 148.143 44.4104H149.691ZM163.791 48.4428V43.6114C163.791 43.1777 163.643 42.7897 163.349 42.4503C163.06 42.1158 162.697 41.9499 162.258 41.9499C161.786 41.9499 161.408 42.1057 161.129 42.4146C160.861 42.7234 160.726 43.1215 160.726 43.6114V48.4428H159.193V43.6114C159.193 43.1164 159.055 42.7183 158.782 42.4146C158.511 42.1057 158.138 41.9499 157.666 41.9499C157.219 41.9499 156.853 42.1158 156.562 42.4503C156.273 42.7846 156.128 43.1726 156.128 43.6114V48.4428H154.595V43.6114C154.595 42.7489 154.889 42.0011 155.479 41.3681C156.067 40.7353 156.795 40.4187 157.663 40.4187C158.595 40.4187 159.362 40.7582 159.959 41.4347C160.547 40.7582 161.313 40.4187 162.255 40.4187C163.119 40.4187 163.844 40.7353 164.432 41.3681C165.027 42.0061 165.323 42.754 165.323 43.6114V48.4428H163.791ZM166.399 39.5306V37.9993H167.932V39.5306H166.399ZM166.399 48.4428V40.5566H167.932V48.4428H166.399ZM174.369 48.4428V43.8642C174.369 43.3463 174.18 42.897 173.799 42.5193C173.421 42.139 172.971 41.9499 172.453 41.9499C171.934 41.9499 171.485 42.139 171.107 42.5193C170.726 42.897 170.537 43.3463 170.537 43.8642V48.4428H169.005V43.8668C169.005 42.9532 169.352 42.1517 170.044 41.4575C170.737 40.7659 171.541 40.4187 172.453 40.4187C173.36 40.4187 174.162 40.7659 174.854 41.4575C175.551 42.1568 175.901 42.9582 175.901 43.8668V48.4428H174.369ZM182.985 44.5074C182.985 43.813 182.732 43.2134 182.229 42.7081C181.723 42.2026 181.12 41.9499 180.423 41.9499C179.723 41.9499 179.12 42.2026 178.614 42.7081C178.116 43.2083 177.866 43.808 177.866 44.5074C177.866 45.2117 178.116 45.8141 178.614 46.3143C179.115 46.8144 179.718 47.0645 180.423 47.0645C181.125 47.0645 181.728 46.8144 182.229 46.3143C182.732 45.8088 182.985 45.2066 182.985 44.5074ZM182.985 48.4428V47.5009C182.226 48.2207 181.329 48.5805 180.295 48.5805C179.197 48.5805 178.262 48.1797 177.488 47.376C176.719 46.5771 176.333 45.62 176.333 44.5074C176.333 43.3843 176.732 42.4221 177.531 41.6235C178.336 40.8195 179.299 40.4187 180.423 40.4187C181.544 40.4187 182.507 40.8195 183.311 41.6235C184.116 42.4248 184.517 43.3843 184.517 44.5023V48.4428H182.985ZM190.31 46.2453C190.31 46.8935 190.075 47.4447 189.605 47.8991C189.138 48.3534 188.581 48.5805 187.938 48.5805C187.368 48.5805 186.87 48.4045 186.441 48.0498C186.012 47.6898 185.736 47.2253 185.611 46.6562L187.092 46.2581C187.192 46.7941 187.473 47.0594 187.938 47.0594C188.157 47.0594 188.354 46.9802 188.53 46.8221C188.704 46.6561 188.791 46.4647 188.791 46.2453C188.791 45.8804 188.515 45.5766 187.96 45.3392C187.516 45.1376 187.166 44.9768 186.908 44.852C186.653 44.7268 186.489 44.6376 186.418 44.5814C185.866 44.1731 185.588 43.5757 185.588 42.7923C185.588 42.1542 185.82 41.5979 186.285 41.1231C186.752 40.6535 187.312 40.4187 187.96 40.4187C188.53 40.4187 189.028 40.6 189.457 40.9649C189.866 41.3196 190.137 41.7817 190.272 42.3507L188.775 42.7412C188.66 42.2155 188.39 41.9526 187.96 41.9526C187.736 41.9526 187.539 42.0394 187.368 42.2077C187.199 42.3787 187.115 42.5728 187.115 42.7923C187.115 43.1521 187.391 43.4532 187.945 43.6982C188.385 43.8871 188.729 44.048 188.982 44.1731C189.233 44.3007 189.398 44.395 189.48 44.4538C190.032 44.8749 190.31 45.4695 190.31 46.2453Z" fill="#5FD9DA"/>
</svg>
